<?xml version="1.0" standalone="no"?>
<!DOCTYPE svg PUBLIC "-//W3C//DTD SVG 20010904//EN"
 "http://www.w3.org/TR/2001/REC-SVG-20010904/DTD/svg10.dtd">
<svg version="1.0" xmlns="http://www.w3.org/2000/svg"
 width="1280.000000pt" height="640.000000pt" viewBox="0 0 1280.000000 640.000000"
 preserveAspectRatio="xMidYMid meet">
<g transform="translate(0.000000,640.000000) scale(0.100000,-0.100000)"
fill="#000000" stroke="none">
<path d="M9300 4069 c-141 -14 -273 -44 -344 -77 -132 -62 -302 -192 -555
-425 l-153 -142 -97 -12 c-657 -79 -1852 -94 -3071 -38 -852 40 -1592 94
-2875 210 -1457 132 -1631 145 -1704 120 -134 -44 -310 -236 -410 -445 -49
-104 -94 -269 -88 -325 22 -192 160 -491 262 -570 55 -41 86 -46 194 -30 161
24 843 112 1281 165 1542 188 3061 332 4250 404 770 47 1043 57 1690 63 l595
5 40 -32 c200 -162 447 -270 687 -300 96 -12 627 -13 2337 -3 1092 6 1231 8
1229 21 -4 21 -30 27 -242 56 -624 88 -1632 147 -2484 146 -243 -1 -447 2
-452 5 -17 10 -12 91 8 114 15 18 36 22 187 33 225 16 1325 17 1720 0 522 -22
782 -31 1063 -38 242 -6 272 -5 272 9 0 21 -102 43 -464 102 -594 96 -1022
127 -2251 165 -181 5 -367 13 -413 16 -93 7 -102 14 -102 84 0 33 4 42 24 52
27 12 870 -3 1266 -22 408 -20 1829 -103 1958 -115 55 -5 62 -4 62 12 0 16
-31 24 -227 61 -726 137 -1316 209 -2638 322 -296 26 -362 34 -372 48 -15 18
-17 80 -4 100 25 40 766 20 1411 -38 360 -33 1398 -155 1780 -210 85 -13 130
-12 130 0 0 13 -19 20 -215 81 -606 188 -1439 339 -2285 415 -208 19 -860 27
-1000 13z"/>
</g>
</svg>
